<?xml version="1.0" encoding="UTF-8" standalone="no"?>
<!DOCTYPE svg PUBLIC "-//W3C//DTD SVG 1.1//EN"
 "http://www.w3.org/Graphics/SVG/1.1/DTD/svg11.dtd">
<!-- Generated by graphviz version 2.47.3 (20210619.1520)
 -->
<!-- Title: dependencies Pages: 1 -->
<svg width="699pt" height="174pt"
 viewBox="0.00 0.00 699.00 173.80" xmlns="http://www.w3.org/2000/svg" xmlns:xlink="http://www.w3.org/1999/xlink">
<g id="graph0" class="graph" transform="scale(1 1) rotate(0) translate(4 169.8)">
<title>dependencies</title>
<polygon fill="white" stroke="transparent" points="-4,4 -4,-169.8 695,-169.8 695,4 -4,4"/>
<text text-anchor="middle" x="345.5" y="-8.2" font-family="sans-serif" font-size="14.00">dependencies</text>
<g id="clust1" class="cluster">
<title>cluster_AffiliateModule</title>
<polygon fill="none" stroke="black" stroke-dasharray="1,5" points="8,-32.8 8,-157.8 683,-157.8 683,-32.8 8,-32.8"/>
</g>
<g id="clust6" class="cluster">
<title>cluster_AffiliateModule_providers</title>
<polygon fill="none" stroke="black" points="16,-40.8 16,-92.8 675,-92.8 675,-40.8 16,-40.8"/>
</g>
<!-- AffiliateServiceFactory -->
<g id="node1" class="node">
<title>AffiliateServiceFactory</title>
<ellipse fill="#fdb462" stroke="black" cx="565" cy="-66.8" rx="102.4" ry="18"/>
<text text-anchor="middle" x="565" y="-62.6" font-family="Times,serif" font-size="14.00">AffiliateServiceFactory</text>
</g>
<!-- AffiliateModule -->
<g id="node5" class="node">
<title>AffiliateModule</title>
<polygon fill="#8dd3c7" stroke="black" points="353.47,-149.8 350.47,-153.8 329.47,-153.8 326.47,-149.8 246.53,-149.8 246.53,-113.8 353.47,-113.8 353.47,-149.8"/>
<text text-anchor="middle" x="300" y="-127.6" font-family="Times,serif" font-size="14.00">AffiliateModule</text>
</g>
<!-- AffiliateServiceFactory&#45;&gt;AffiliateModule -->
<g id="edge1" class="edge">
<title>AffiliateServiceFactory&#45;&gt;AffiliateModule</title>
<path fill="none" stroke="black" d="M565,-84.91C565,-104.14 565,-131.8 565,-131.8 565,-131.8 363.63,-131.8 363.63,-131.8"/>
<polygon fill="black" stroke="black" points="363.63,-128.3 353.63,-131.8 363.63,-135.3 363.63,-128.3"/>
</g>
<!-- LazadaService -->
<g id="node2" class="node">
<title>LazadaService</title>
<ellipse fill="#fdb462" stroke="black" cx="377" cy="-66.8" rx="67.73" ry="18"/>
<text text-anchor="middle" x="377" y="-62.6" font-family="Times,serif" font-size="14.00">LazadaService</text>
</g>
<!-- LazadaService&#45;&gt;AffiliateModule -->
<g id="edge2" class="edge">
<title>LazadaService&#45;&gt;AffiliateModule</title>
<path fill="none" stroke="black" d="M331.31,-80.27C331.31,-80.27 331.31,-103.66 331.31,-103.66"/>
<polygon fill="black" stroke="black" points="327.81,-103.66 331.31,-113.66 334.81,-103.66 327.81,-103.66"/>
</g>
<!-- ShopeeService -->
<g id="node3" class="node">
<title>ShopeeService</title>
<ellipse fill="#fdb462" stroke="black" cx="223" cy="-66.8" rx="68.34" ry="18"/>
<text text-anchor="middle" x="223" y="-62.6" font-family="Times,serif" font-size="14.00">ShopeeService</text>
</g>
<!-- ShopeeService&#45;&gt;AffiliateModule -->
<g id="edge3" class="edge">
<title>ShopeeService&#45;&gt;AffiliateModule</title>
<path fill="none" stroke="black" d="M268.97,-80.27C268.97,-80.27 268.97,-103.66 268.97,-103.66"/>
<polygon fill="black" stroke="black" points="265.47,-103.66 268.97,-113.66 272.47,-103.66 265.47,-103.66"/>
</g>
<!-- TikiService -->
<g id="node4" class="node">
<title>TikiService</title>
<ellipse fill="#fdb462" stroke="black" cx="80" cy="-66.8" rx="56.17" ry="18"/>
<text text-anchor="middle" x="80" y="-62.6" font-family="Times,serif" font-size="14.00">TikiService</text>
</g>
<!-- TikiService&#45;&gt;AffiliateModule -->
<g id="edge4" class="edge">
<title>TikiService&#45;&gt;AffiliateModule</title>
<path fill="none" stroke="black" d="M80,-84.91C80,-104.14 80,-131.8 80,-131.8 80,-131.8 236.46,-131.8 236.46,-131.8"/>
<polygon fill="black" stroke="black" points="236.46,-135.3 246.46,-131.8 236.46,-128.3 236.46,-135.3"/>
</g>
</g>
</svg>
