<?xml version="1.0" encoding="UTF-8" standalone="no"?>
<!DOCTYPE svg PUBLIC "-//W3C//DTD SVG 1.1//EN"
 "http://www.w3.org/Graphics/SVG/1.1/DTD/svg11.dtd">
<!-- Generated by graphviz version 2.47.3 (20210619.1520)
 -->
<!-- Title: dependencies Pages: 1 -->
<svg width="963pt" height="174pt"
 viewBox="0.00 0.00 963.00 173.80" xmlns="http://www.w3.org/2000/svg" xmlns:xlink="http://www.w3.org/1999/xlink">
<g id="graph0" class="graph" transform="scale(1 1) rotate(0) translate(4 169.8)">
<title>dependencies</title>
<polygon fill="white" stroke="transparent" points="-4,4 -4,-169.8 959,-169.8 959,4 -4,4"/>
<text text-anchor="middle" x="477.5" y="-8.2" font-family="sans-serif" font-size="14.00">dependencies</text>
<g id="clust1" class="cluster">
<title>cluster_AffiliateModule</title>
<polygon fill="none" stroke="black" stroke-dasharray="1,5" points="8,-32.8 8,-157.8 947,-157.8 947,-32.8 8,-32.8"/>
</g>
<g id="clust3" class="cluster">
<title>cluster_AffiliateModule_imports</title>
<polygon fill="none" stroke="black" points="835,-40.8 835,-92.8 939,-92.8 939,-40.8 835,-40.8"/>
</g>
<g id="clust6" class="cluster">
<title>cluster_AffiliateModule_providers</title>
<polygon fill="none" stroke="black" points="16,-40.8 16,-92.8 827,-92.8 827,-40.8 16,-40.8"/>
</g>
<!-- AuthModule -->
<g id="node1" class="node">
<title>AuthModule</title>
<polygon fill="#8dd3c7" stroke="black" points="930.55,-84.8 927.55,-88.8 906.55,-88.8 903.55,-84.8 843.45,-84.8 843.45,-48.8 930.55,-48.8 930.55,-84.8"/>
<text text-anchor="middle" x="887" y="-62.6" font-family="Times,serif" font-size="14.00">AuthModule</text>
</g>
<!-- AffiliateModule -->
<g id="node2" class="node">
<title>AffiliateModule</title>
<polygon fill="#8dd3c7" stroke="black" points="505.47,-149.8 502.47,-153.8 481.47,-153.8 478.47,-149.8 398.53,-149.8 398.53,-113.8 505.47,-113.8 505.47,-149.8"/>
<text text-anchor="middle" x="452" y="-127.6" font-family="Times,serif" font-size="14.00">AffiliateModule</text>
</g>
<!-- AuthModule&#45;&gt;AffiliateModule -->
<g id="edge1" class="edge">
<title>AuthModule&#45;&gt;AffiliateModule</title>
<path fill="none" stroke="black" d="M887,-85.08C887,-106.12 887,-137.8 887,-137.8 887,-137.8 515.78,-137.8 515.78,-137.8"/>
<polygon fill="black" stroke="black" points="515.78,-134.3 505.78,-137.8 515.78,-141.3 515.78,-134.3"/>
</g>
<!-- AffiliateServiceFactory -->
<g id="node3" class="node">
<title>AffiliateServiceFactory</title>
<ellipse fill="#fdb462" stroke="black" cx="717" cy="-66.8" rx="102.4" ry="18"/>
<text text-anchor="middle" x="717" y="-62.6" font-family="Times,serif" font-size="14.00">AffiliateServiceFactory</text>
</g>
<!-- AffiliateServiceFactory&#45;&gt;AffiliateModule -->
<g id="edge2" class="edge">
<title>AffiliateServiceFactory&#45;&gt;AffiliateModule</title>
<path fill="none" stroke="black" d="M717,-84.82C717,-102.17 717,-125.8 717,-125.8 717,-125.8 515.63,-125.8 515.63,-125.8"/>
<polygon fill="black" stroke="black" points="515.63,-122.3 505.63,-125.8 515.63,-129.3 515.63,-122.3"/>
</g>
<!-- LazadaService -->
<g id="node4" class="node">
<title>LazadaService</title>
<ellipse fill="#fdb462" stroke="black" cx="529" cy="-66.8" rx="67.73" ry="18"/>
<text text-anchor="middle" x="529" y="-62.6" font-family="Times,serif" font-size="14.00">LazadaService</text>
</g>
<!-- LazadaService&#45;&gt;AffiliateModule -->
<g id="edge3" class="edge">
<title>LazadaService&#45;&gt;AffiliateModule</title>
<path fill="none" stroke="black" d="M483.31,-80.27C483.31,-80.27 483.31,-103.66 483.31,-103.66"/>
<polygon fill="black" stroke="black" points="479.81,-103.66 483.31,-113.66 486.81,-103.66 479.81,-103.66"/>
</g>
<!-- PrismaService -->
<g id="node5" class="node">
<title>PrismaService</title>
<ellipse fill="#fdb462" stroke="black" cx="376" cy="-66.8" rx="66.63" ry="18"/>
<text text-anchor="middle" x="376" y="-62.6" font-family="Times,serif" font-size="14.00">PrismaService</text>
</g>
<!-- PrismaService&#45;&gt;AffiliateModule -->
<g id="edge4" class="edge">
<title>PrismaService&#45;&gt;AffiliateModule</title>
<path fill="none" stroke="black" d="M420.66,-80.27C420.66,-80.27 420.66,-103.66 420.66,-103.66"/>
<polygon fill="black" stroke="black" points="417.16,-103.66 420.66,-113.66 424.16,-103.66 417.16,-103.66"/>
</g>
<!-- ShopeeService -->
<g id="node6" class="node">
<title>ShopeeService</title>
<ellipse fill="#fdb462" stroke="black" cx="223" cy="-66.8" rx="68.34" ry="18"/>
<text text-anchor="middle" x="223" y="-62.6" font-family="Times,serif" font-size="14.00">ShopeeService</text>
</g>
<!-- ShopeeService&#45;&gt;AffiliateModule -->
<g id="edge5" class="edge">
<title>ShopeeService&#45;&gt;AffiliateModule</title>
<path fill="none" stroke="black" d="M223,-84.82C223,-102.17 223,-125.8 223,-125.8 223,-125.8 388.31,-125.8 388.31,-125.8"/>
<polygon fill="black" stroke="black" points="388.31,-129.3 398.31,-125.8 388.31,-122.3 388.31,-129.3"/>
</g>
<!-- TikiService -->
<g id="node7" class="node">
<title>TikiService</title>
<ellipse fill="#fdb462" stroke="black" cx="80" cy="-66.8" rx="56.17" ry="18"/>
<text text-anchor="middle" x="80" y="-62.6" font-family="Times,serif" font-size="14.00">TikiService</text>
</g>
<!-- TikiService&#45;&gt;AffiliateModule -->
<g id="edge6" class="edge">
<title>TikiService&#45;&gt;AffiliateModule</title>
<path fill="none" stroke="black" d="M80,-85.08C80,-106.12 80,-137.8 80,-137.8 80,-137.8 388.31,-137.8 388.31,-137.8"/>
<polygon fill="black" stroke="black" points="388.31,-141.3 398.31,-137.8 388.31,-134.3 388.31,-141.3"/>
</g>
</g>
</svg>
