<?xml version="1.0" encoding="UTF-8" standalone="no"?>
<!DOCTYPE svg PUBLIC "-//W3C//DTD SVG 1.1//EN"
 "http://www.w3.org/Graphics/SVG/1.1/DTD/svg11.dtd">
<!-- Generated by graphviz version 2.47.3 (20210619.1520)
 -->
<!-- Title: dependencies Pages: 1 -->
<svg width="851pt" height="174pt"
 viewBox="0.00 0.00 851.00 173.80" xmlns="http://www.w3.org/2000/svg" xmlns:xlink="http://www.w3.org/1999/xlink">
<g id="graph0" class="graph" transform="scale(1 1) rotate(0) translate(4 169.8)">
<title>dependencies</title>
<polygon fill="white" stroke="transparent" points="-4,4 -4,-169.8 847,-169.8 847,4 -4,4"/>
<text text-anchor="middle" x="421.5" y="-8.2" font-family="sans-serif" font-size="14.00">dependencies</text>
<g id="clust1" class="cluster">
<title>cluster_AffiliateModule</title>
<polygon fill="none" stroke="black" stroke-dasharray="1,5" points="8,-32.8 8,-157.8 835,-157.8 835,-32.8 8,-32.8"/>
</g>
<g id="clust6" class="cluster">
<title>cluster_AffiliateModule_providers</title>
<polygon fill="none" stroke="black" points="16,-40.8 16,-92.8 827,-92.8 827,-40.8 16,-40.8"/>
</g>
<!-- AffiliateServiceFactory -->
<g id="node1" class="node">
<title>AffiliateServiceFactory</title>
<ellipse fill="#fdb462" stroke="black" cx="717" cy="-66.8" rx="102.4" ry="18"/>
<text text-anchor="middle" x="717" y="-62.6" font-family="Times,serif" font-size="14.00">AffiliateServiceFactory</text>
</g>
<!-- AffiliateModule -->
<g id="node6" class="node">
<title>AffiliateModule</title>
<polygon fill="#8dd3c7" stroke="black" points="429.47,-149.8 426.47,-153.8 405.47,-153.8 402.47,-149.8 322.53,-149.8 322.53,-113.8 429.47,-113.8 429.47,-149.8"/>
<text text-anchor="middle" x="376" y="-127.6" font-family="Times,serif" font-size="14.00">AffiliateModule</text>
</g>
<!-- AffiliateServiceFactory&#45;&gt;AffiliateModule -->
<g id="edge1" class="edge">
<title>AffiliateServiceFactory&#45;&gt;AffiliateModule</title>
<path fill="none" stroke="black" d="M717,-85.08C717,-106.12 717,-137.8 717,-137.8 717,-137.8 439.66,-137.8 439.66,-137.8"/>
<polygon fill="black" stroke="black" points="439.66,-134.3 429.66,-137.8 439.66,-141.3 439.66,-134.3"/>
</g>
<!-- LazadaService -->
<g id="node2" class="node">
<title>LazadaService</title>
<ellipse fill="#fdb462" stroke="black" cx="529" cy="-66.8" rx="67.73" ry="18"/>
<text text-anchor="middle" x="529" y="-62.6" font-family="Times,serif" font-size="14.00">LazadaService</text>
</g>
<!-- LazadaService&#45;&gt;AffiliateModule -->
<g id="edge2" class="edge">
<title>LazadaService&#45;&gt;AffiliateModule</title>
<path fill="none" stroke="black" d="M529,-84.82C529,-102.17 529,-125.8 529,-125.8 529,-125.8 439.51,-125.8 439.51,-125.8"/>
<polygon fill="black" stroke="black" points="439.51,-122.3 429.51,-125.8 439.51,-129.3 439.51,-122.3"/>
</g>
<!-- PrismaService -->
<g id="node3" class="node">
<title>PrismaService</title>
<ellipse fill="#fdb462" stroke="black" cx="376" cy="-66.8" rx="66.63" ry="18"/>
<text text-anchor="middle" x="376" y="-62.6" font-family="Times,serif" font-size="14.00">PrismaService</text>
</g>
<!-- PrismaService&#45;&gt;AffiliateModule -->
<g id="edge3" class="edge">
<title>PrismaService&#45;&gt;AffiliateModule</title>
<path fill="none" stroke="black" d="M376,-84.91C376,-84.91 376,-103.79 376,-103.79"/>
<polygon fill="black" stroke="black" points="372.5,-103.79 376,-113.79 379.5,-103.79 372.5,-103.79"/>
</g>
<!-- ShopeeService -->
<g id="node4" class="node">
<title>ShopeeService</title>
<ellipse fill="#fdb462" stroke="black" cx="223" cy="-66.8" rx="68.34" ry="18"/>
<text text-anchor="middle" x="223" y="-62.6" font-family="Times,serif" font-size="14.00">ShopeeService</text>
</g>
<!-- ShopeeService&#45;&gt;AffiliateModule -->
<g id="edge4" class="edge">
<title>ShopeeService&#45;&gt;AffiliateModule</title>
<path fill="none" stroke="black" d="M223,-84.82C223,-102.17 223,-125.8 223,-125.8 223,-125.8 312.49,-125.8 312.49,-125.8"/>
<polygon fill="black" stroke="black" points="312.49,-129.3 322.49,-125.8 312.49,-122.3 312.49,-129.3"/>
</g>
<!-- TikiService -->
<g id="node5" class="node">
<title>TikiService</title>
<ellipse fill="#fdb462" stroke="black" cx="80" cy="-66.8" rx="56.17" ry="18"/>
<text text-anchor="middle" x="80" y="-62.6" font-family="Times,serif" font-size="14.00">TikiService</text>
</g>
<!-- TikiService&#45;&gt;AffiliateModule -->
<g id="edge5" class="edge">
<title>TikiService&#45;&gt;AffiliateModule</title>
<path fill="none" stroke="black" d="M80,-85.08C80,-106.12 80,-137.8 80,-137.8 80,-137.8 312.4,-137.8 312.4,-137.8"/>
<polygon fill="black" stroke="black" points="312.4,-141.3 322.4,-137.8 312.4,-134.3 312.4,-141.3"/>
</g>
</g>
</svg>
