<?xml version="1.0" encoding="UTF-8" standalone="no"?>
<!DOCTYPE svg PUBLIC "-//W3C//DTD SVG 1.1//EN"
 "http://www.w3.org/Graphics/SVG/1.1/DTD/svg11.dtd">
<!-- Generated by graphviz version 2.47.3 (20210619.1520)
 -->
<!-- Title: dependencies Pages: 1 -->
<svg width="268pt" height="174pt"
 viewBox="0.00 0.00 268.00 173.80" xmlns="http://www.w3.org/2000/svg" xmlns:xlink="http://www.w3.org/1999/xlink">
<g id="graph0" class="graph" transform="scale(1 1) rotate(0) translate(4 169.8)">
<title>dependencies</title>
<polygon fill="white" stroke="transparent" points="-4,4 -4,-169.8 264,-169.8 264,4 -4,4"/>
<text text-anchor="middle" x="130" y="-8.2" font-family="sans-serif" font-size="14.00">dependencies</text>
<g id="clust1" class="cluster">
<title>cluster_AppModule</title>
<polygon fill="none" stroke="black" stroke-dasharray="1,5" points="8,-32.8 8,-157.8 252,-157.8 252,-32.8 8,-32.8"/>
</g>
<g id="clust3" class="cluster">
<title>cluster_AppModule_imports</title>
<polygon fill="none" stroke="black" points="16,-40.8 16,-92.8 244,-92.8 244,-40.8 16,-40.8"/>
</g>
<!-- AffiliateModule -->
<g id="node1" class="node">
<title>AffiliateModule</title>
<polygon fill="#8dd3c7" stroke="black" points="236.47,-84.8 233.47,-88.8 212.47,-88.8 209.47,-84.8 129.53,-84.8 129.53,-48.8 236.47,-48.8 236.47,-84.8"/>
<text text-anchor="middle" x="183" y="-62.6" font-family="Times,serif" font-size="14.00">AffiliateModule</text>
</g>
<!-- AppModule -->
<g id="node3" class="node">
<title>AppModule</title>
<polygon fill="#8dd3c7" stroke="black" points="166.66,-149.8 163.66,-153.8 142.66,-153.8 139.66,-149.8 83.34,-149.8 83.34,-113.8 166.66,-113.8 166.66,-149.8"/>
<text text-anchor="middle" x="125" y="-127.6" font-family="Times,serif" font-size="14.00">AppModule</text>
</g>
<!-- AffiliateModule&#45;&gt;AppModule -->
<g id="edge1" class="edge">
<title>AffiliateModule&#45;&gt;AppModule</title>
<path fill="none" stroke="black" d="M148.17,-84.91C148.17,-84.91 148.17,-103.79 148.17,-103.79"/>
<polygon fill="black" stroke="black" points="144.67,-103.79 148.17,-113.79 151.67,-103.79 144.67,-103.79"/>
</g>
<!-- AuthModule -->
<g id="node2" class="node">
<title>AuthModule</title>
<polygon fill="#8dd3c7" stroke="black" points="111.55,-84.8 108.55,-88.8 87.55,-88.8 84.55,-84.8 24.45,-84.8 24.45,-48.8 111.55,-48.8 111.55,-84.8"/>
<text text-anchor="middle" x="68" y="-62.6" font-family="Times,serif" font-size="14.00">AuthModule</text>
</g>
<!-- AuthModule&#45;&gt;AppModule -->
<g id="edge2" class="edge">
<title>AuthModule&#45;&gt;AppModule</title>
<path fill="none" stroke="black" d="M97.47,-84.91C97.47,-84.91 97.47,-103.79 97.47,-103.79"/>
<polygon fill="black" stroke="black" points="93.97,-103.79 97.47,-113.79 100.97,-103.79 93.97,-103.79"/>
</g>
</g>
</svg>
