<?xml version="1.0" encoding="UTF-8" standalone="no"?>
<!DOCTYPE svg PUBLIC "-//W3C//DTD SVG 1.1//EN"
 "http://www.w3.org/Graphics/SVG/1.1/DTD/svg11.dtd">
<!-- Generated by graphviz version 2.47.3 (20210619.1520)
 -->
<!-- Title: dependencies Pages: 1 -->
<svg width="1264pt" height="307pt"
 viewBox="0.00 0.00 1264.00 306.80" xmlns="http://www.w3.org/2000/svg" xmlns:xlink="http://www.w3.org/1999/xlink">
<g id="graph0" class="graph" transform="scale(1 1) rotate(0) translate(4 302.8)">
<title>dependencies</title>
<polygon fill="white" stroke="transparent" points="-4,4 -4,-302.8 1260,-302.8 1260,4 -4,4"/>
<text text-anchor="middle" x="628" y="-8.2" font-family="sans-serif" font-size="14.00">dependencies</text>
<g id="clust1" class="cluster">
<title>cluster_AffiliateModule</title>
<polygon fill="none" stroke="black" stroke-dasharray="1,5" points="8,-32.8 8,-225.8 836,-225.8 836,-32.8 8,-32.8"/>
</g>
<g id="clust3" class="cluster">
<title>cluster_AffiliateModule_imports</title>
<polygon fill="none" stroke="black" points="712,-108.8 712,-160.8 816,-160.8 816,-108.8 712,-108.8"/>
</g>
<g id="clust6" class="cluster">
<title>cluster_AffiliateModule_providers</title>
<polygon fill="none" stroke="black" points="16,-40.8 16,-92.8 828,-92.8 828,-40.8 16,-40.8"/>
</g>
<g id="clust7" class="cluster">
<title>cluster_AppModule</title>
<polygon fill="none" stroke="black" stroke-dasharray="1,5" points="608,-238.8 608,-290.8 708,-290.8 708,-238.8 608,-238.8"/>
</g>
<g id="clust13" class="cluster">
<title>cluster_AuthModule</title>
<polygon fill="none" stroke="black" stroke-dasharray="1,5" points="844,-32.8 844,-100.8 1248,-100.8 1248,-32.8 844,-32.8"/>
</g>
<g id="clust16" class="cluster">
<title>cluster_AuthModule_exports</title>
<polygon fill="none" stroke="black" points="1138,-40.8 1138,-92.8 1240,-92.8 1240,-40.8 1138,-40.8"/>
</g>
<g id="clust18" class="cluster">
<title>cluster_AuthModule_providers</title>
<polygon fill="none" stroke="black" points="852,-40.8 852,-92.8 1130,-92.8 1130,-40.8 852,-40.8"/>
</g>
<!-- AuthModule -->
<g id="node1" class="node">
<title>AuthModule</title>
<polygon fill="#8dd3c7" stroke="black" points="807.55,-152.8 804.55,-156.8 783.55,-156.8 780.55,-152.8 720.45,-152.8 720.45,-116.8 807.55,-116.8 807.55,-152.8"/>
<text text-anchor="middle" x="764" y="-130.6" font-family="Times,serif" font-size="14.00">AuthModule</text>
</g>
<!-- AffiliateModule -->
<g id="node2" class="node">
<title>AffiliateModule</title>
<polygon fill="#8dd3c7" stroke="black" points="653.47,-217.8 650.47,-221.8 629.47,-221.8 626.47,-217.8 546.53,-217.8 546.53,-181.8 653.47,-181.8 653.47,-217.8"/>
<text text-anchor="middle" x="600" y="-195.6" font-family="Times,serif" font-size="14.00">AffiliateModule</text>
</g>
<!-- AuthModule&#45;&gt;AffiliateModule -->
<g id="edge1" class="edge">
<title>AuthModule&#45;&gt;AffiliateModule</title>
<path fill="none" stroke="black" d="M764,-153.08C764,-174.12 764,-205.8 764,-205.8 764,-205.8 663.7,-205.8 663.7,-205.8"/>
<polygon fill="black" stroke="black" points="663.7,-202.3 653.7,-205.8 663.7,-209.3 663.7,-202.3"/>
</g>
<!-- AppModule -->
<g id="node8" class="node">
<title>AppModule</title>
<polygon fill="#8dd3c7" stroke="black" points="699.66,-282.8 696.66,-286.8 675.66,-286.8 672.66,-282.8 616.34,-282.8 616.34,-246.8 699.66,-246.8 699.66,-282.8"/>
<text text-anchor="middle" x="658" y="-260.6" font-family="Times,serif" font-size="14.00">AppModule</text>
</g>
<!-- AuthModule&#45;&gt;AppModule -->
<g id="edge8" class="edge">
<title>AuthModule&#45;&gt;AppModule</title>
<path fill="none" stroke="black" d="M720.09,-134.8C706.62,-134.8 695.28,-134.8 695.28,-134.8 695.28,-134.8 695.28,-236.72 695.28,-236.72"/>
<polygon fill="black" stroke="black" points="691.78,-236.72 695.28,-246.72 698.78,-236.72 691.78,-236.72"/>
</g>
<!-- JwtStrategy  -->
<g id="node9" class="node">
<title>JwtStrategy </title>
<polygon fill="#fb8072" stroke="black" points="1231.6,-84.8 1146.4,-84.8 1146.4,-48.8 1231.6,-48.8 1231.6,-84.8"/>
<text text-anchor="middle" x="1189" y="-62.6" font-family="Times,serif" font-size="14.00">JwtStrategy </text>
</g>
<!-- AuthModule&#45;&gt;JwtStrategy  -->
<g id="edge9" class="edge">
<title>AuthModule&#45;&gt;JwtStrategy </title>
<path fill="none" stroke="black" stroke-dasharray="5,2" d="M807.88,-143.8C916.47,-143.8 1189,-143.8 1189,-143.8 1189,-143.8 1189,-95.05 1189,-95.05"/>
<polygon fill="black" stroke="black" points="1192.5,-95.05 1189,-85.05 1185.5,-95.05 1192.5,-95.05"/>
</g>
<!-- AffiliateModule&#45;&gt;AppModule -->
<g id="edge7" class="edge">
<title>AffiliateModule&#45;&gt;AppModule</title>
<path fill="none" stroke="black" d="M634.83,-217.91C634.83,-217.91 634.83,-236.79 634.83,-236.79"/>
<polygon fill="black" stroke="black" points="631.33,-236.79 634.83,-246.79 638.33,-236.79 631.33,-236.79"/>
</g>
<!-- AffiliateServiceFactory -->
<g id="node3" class="node">
<title>AffiliateServiceFactory</title>
<ellipse fill="#fdb462" stroke="black" cx="126" cy="-66.8" rx="102.4" ry="18"/>
<text text-anchor="middle" x="126" y="-62.6" font-family="Times,serif" font-size="14.00">AffiliateServiceFactory</text>
</g>
<!-- AffiliateServiceFactory&#45;&gt;AffiliateModule -->
<g id="edge2" class="edge">
<title>AffiliateServiceFactory&#45;&gt;AffiliateModule</title>
<path fill="none" stroke="black" d="M126,-85.07C126,-123.43 126,-208.8 126,-208.8 126,-208.8 536.09,-208.8 536.09,-208.8"/>
<polygon fill="black" stroke="black" points="536.09,-212.3 546.09,-208.8 536.09,-205.3 536.09,-212.3"/>
</g>
<!-- LazadaService -->
<g id="node4" class="node">
<title>LazadaService</title>
<ellipse fill="#fdb462" stroke="black" cx="600" cy="-66.8" rx="67.73" ry="18"/>
<text text-anchor="middle" x="600" y="-62.6" font-family="Times,serif" font-size="14.00">LazadaService</text>
</g>
<!-- LazadaService&#45;&gt;AffiliateModule -->
<g id="edge3" class="edge">
<title>LazadaService&#45;&gt;AffiliateModule</title>
<path fill="none" stroke="black" d="M600,-85.01C600,-85.01 600,-171.38 600,-171.38"/>
<polygon fill="black" stroke="black" points="596.5,-171.38 600,-181.38 603.5,-171.38 596.5,-171.38"/>
</g>
<!-- PrismaService -->
<g id="node5" class="node">
<title>PrismaService</title>
<ellipse fill="#fdb462" stroke="black" cx="753" cy="-66.8" rx="66.63" ry="18"/>
<text text-anchor="middle" x="753" y="-62.6" font-family="Times,serif" font-size="14.00">PrismaService</text>
</g>
<!-- PrismaService&#45;&gt;AuthModule -->
<g id="edge12" class="edge">
<title>PrismaService&#45;&gt;AuthModule</title>
<path fill="none" stroke="black" d="M764,-84.67C764,-84.67 764,-106.34 764,-106.34"/>
<polygon fill="black" stroke="black" points="760.5,-106.34 764,-116.34 767.5,-106.34 760.5,-106.34"/>
</g>
<!-- PrismaService&#45;&gt;AffiliateModule -->
<g id="edge4" class="edge">
<title>PrismaService&#45;&gt;AffiliateModule</title>
<path fill="none" stroke="black" d="M690.73,-73.63C690.73,-100.01 690.73,-193.8 690.73,-193.8 690.73,-193.8 663.57,-193.8 663.57,-193.8"/>
<polygon fill="black" stroke="black" points="663.57,-190.3 653.57,-193.8 663.57,-197.3 663.57,-190.3"/>
</g>
<!-- ShopeeService -->
<g id="node6" class="node">
<title>ShopeeService</title>
<ellipse fill="#fdb462" stroke="black" cx="315" cy="-66.8" rx="68.34" ry="18"/>
<text text-anchor="middle" x="315" y="-62.6" font-family="Times,serif" font-size="14.00">ShopeeService</text>
</g>
<!-- ShopeeService&#45;&gt;AffiliateModule -->
<g id="edge5" class="edge">
<title>ShopeeService&#45;&gt;AffiliateModule</title>
<path fill="none" stroke="black" d="M315,-85.01C315,-121.44 315,-199.8 315,-199.8 315,-199.8 536.39,-199.8 536.39,-199.8"/>
<polygon fill="black" stroke="black" points="536.39,-203.3 546.39,-199.8 536.39,-196.3 536.39,-203.3"/>
</g>
<!-- TikiService -->
<g id="node7" class="node">
<title>TikiService</title>
<ellipse fill="#fdb462" stroke="black" cx="458" cy="-66.8" rx="56.17" ry="18"/>
<text text-anchor="middle" x="458" y="-62.6" font-family="Times,serif" font-size="14.00">TikiService</text>
</g>
<!-- TikiService&#45;&gt;AffiliateModule -->
<g id="edge6" class="edge">
<title>TikiService&#45;&gt;AffiliateModule</title>
<path fill="none" stroke="black" d="M458,-84.83C458,-119.22 458,-190.8 458,-190.8 458,-190.8 536.32,-190.8 536.32,-190.8"/>
<polygon fill="black" stroke="black" points="536.32,-194.3 546.32,-190.8 536.32,-187.3 536.32,-194.3"/>
</g>
<!-- JwtStrategy -->
<g id="node10" class="node">
<title>JwtStrategy</title>
<ellipse fill="#fdb462" stroke="black" cx="1065" cy="-66.8" rx="56.76" ry="18"/>
<text text-anchor="middle" x="1065" y="-62.6" font-family="Times,serif" font-size="14.00">JwtStrategy</text>
</g>
<!-- JwtStrategy&#45;&gt;AuthModule -->
<g id="edge10" class="edge">
<title>JwtStrategy&#45;&gt;AuthModule</title>
<path fill="none" stroke="black" d="M1065,-85.02C1065,-105.17 1065,-134.8 1065,-134.8 1065,-134.8 817.77,-134.8 817.77,-134.8"/>
<polygon fill="black" stroke="black" points="817.77,-131.3 807.77,-134.8 817.77,-138.3 817.77,-131.3"/>
</g>
<!-- LocalStrategy -->
<g id="node11" class="node">
<title>LocalStrategy</title>
<ellipse fill="#fdb462" stroke="black" cx="925" cy="-66.8" rx="65.41" ry="18"/>
<text text-anchor="middle" x="925" y="-62.6" font-family="Times,serif" font-size="14.00">LocalStrategy</text>
</g>
<!-- LocalStrategy&#45;&gt;AuthModule -->
<g id="edge11" class="edge">
<title>LocalStrategy&#45;&gt;AuthModule</title>
<path fill="none" stroke="black" d="M925,-84.82C925,-102.17 925,-125.8 925,-125.8 925,-125.8 817.57,-125.8 817.57,-125.8"/>
<polygon fill="black" stroke="black" points="817.57,-122.3 807.57,-125.8 817.57,-129.3 817.57,-122.3"/>
</g>
</g>
</svg>
