<?xml version="1.0" encoding="UTF-8" standalone="no"?>
<!DOCTYPE svg PUBLIC "-//W3C//DTD SVG 1.1//EN"
 "http://www.w3.org/Graphics/SVG/1.1/DTD/svg11.dtd">
<!-- Generated by graphviz version 2.47.3 (20210619.1520)
 -->
<!-- Title: dependencies Pages: 1 -->
<svg width="1154pt" height="307pt"
 viewBox="0.00 0.00 1154.00 306.80" xmlns="http://www.w3.org/2000/svg" xmlns:xlink="http://www.w3.org/1999/xlink">
<g id="graph0" class="graph" transform="scale(1 1) rotate(0) translate(4 302.8)">
<title>dependencies</title>
<polygon fill="white" stroke="transparent" points="-4,4 -4,-302.8 1150,-302.8 1150,4 -4,4"/>
<text text-anchor="middle" x="573" y="-8.2" font-family="sans-serif" font-size="14.00">dependencies</text>
<g id="clust1" class="cluster">
<title>cluster_AffiliateModule</title>
<polygon fill="none" stroke="black" stroke-dasharray="1,5" points="8,-32.8 8,-225.8 836,-225.8 836,-32.8 8,-32.8"/>
</g>
<g id="clust3" class="cluster">
<title>cluster_AffiliateModule_imports</title>
<polygon fill="none" stroke="black" points="701,-108.8 701,-160.8 805,-160.8 805,-108.8 701,-108.8"/>
</g>
<g id="clust6" class="cluster">
<title>cluster_AffiliateModule_providers</title>
<polygon fill="none" stroke="black" points="16,-40.8 16,-92.8 828,-92.8 828,-40.8 16,-40.8"/>
</g>
<g id="clust7" class="cluster">
<title>cluster_AppModule</title>
<polygon fill="none" stroke="black" stroke-dasharray="1,5" points="608,-238.8 608,-290.8 708,-290.8 708,-238.8 608,-238.8"/>
</g>
<g id="clust13" class="cluster">
<title>cluster_AuthModule</title>
<polygon fill="none" stroke="black" stroke-dasharray="1,5" points="844,-32.8 844,-100.8 1138,-100.8 1138,-32.8 844,-32.8"/>
</g>
<g id="clust18" class="cluster">
<title>cluster_AuthModule_providers</title>
<polygon fill="none" stroke="black" points="852,-40.8 852,-92.8 1130,-92.8 1130,-40.8 852,-40.8"/>
</g>
<!-- AuthModule -->
<g id="node1" class="node">
<title>AuthModule</title>
<polygon fill="#8dd3c7" stroke="black" points="796.55,-152.8 793.55,-156.8 772.55,-156.8 769.55,-152.8 709.45,-152.8 709.45,-116.8 796.55,-116.8 796.55,-152.8"/>
<text text-anchor="middle" x="753" y="-130.6" font-family="Times,serif" font-size="14.00">AuthModule</text>
</g>
<!-- AffiliateModule -->
<g id="node2" class="node">
<title>AffiliateModule</title>
<polygon fill="#8dd3c7" stroke="black" points="653.47,-217.8 650.47,-221.8 629.47,-221.8 626.47,-217.8 546.53,-217.8 546.53,-181.8 653.47,-181.8 653.47,-217.8"/>
<text text-anchor="middle" x="600" y="-195.6" font-family="Times,serif" font-size="14.00">AffiliateModule</text>
</g>
<!-- AuthModule&#45;&gt;AffiliateModule -->
<g id="edge1" class="edge">
<title>AuthModule&#45;&gt;AffiliateModule</title>
<path fill="none" stroke="black" d="M753,-153.08C753,-174.12 753,-205.8 753,-205.8 753,-205.8 663.51,-205.8 663.51,-205.8"/>
<polygon fill="black" stroke="black" points="663.51,-202.3 653.51,-205.8 663.51,-209.3 663.51,-202.3"/>
</g>
<!-- AppModule -->
<g id="node8" class="node">
<title>AppModule</title>
<polygon fill="#8dd3c7" stroke="black" points="699.66,-282.8 696.66,-286.8 675.66,-286.8 672.66,-282.8 616.34,-282.8 616.34,-246.8 699.66,-246.8 699.66,-282.8"/>
<text text-anchor="middle" x="658" y="-260.6" font-family="Times,serif" font-size="14.00">AppModule</text>
</g>
<!-- AuthModule&#45;&gt;AppModule -->
<g id="edge8" class="edge">
<title>AuthModule&#45;&gt;AppModule</title>
<path fill="none" stroke="black" d="M709.25,-134.8C701.2,-134.8 695.28,-134.8 695.28,-134.8 695.28,-134.8 695.28,-236.72 695.28,-236.72"/>
<polygon fill="black" stroke="black" points="691.78,-236.72 695.28,-246.72 698.78,-236.72 691.78,-236.72"/>
</g>
<!-- AffiliateModule&#45;&gt;AppModule -->
<g id="edge7" class="edge">
<title>AffiliateModule&#45;&gt;AppModule</title>
<path fill="none" stroke="black" d="M634.83,-217.91C634.83,-217.91 634.83,-236.79 634.83,-236.79"/>
<polygon fill="black" stroke="black" points="631.33,-236.79 634.83,-246.79 638.33,-236.79 631.33,-236.79"/>
</g>
<!-- AffiliateServiceFactory -->
<g id="node3" class="node">
<title>AffiliateServiceFactory</title>
<ellipse fill="#fdb462" stroke="black" cx="126" cy="-66.8" rx="102.4" ry="18"/>
<text text-anchor="middle" x="126" y="-62.6" font-family="Times,serif" font-size="14.00">AffiliateServiceFactory</text>
</g>
<!-- AffiliateServiceFactory&#45;&gt;AffiliateModule -->
<g id="edge2" class="edge">
<title>AffiliateServiceFactory&#45;&gt;AffiliateModule</title>
<path fill="none" stroke="black" d="M126,-85.07C126,-123.43 126,-208.8 126,-208.8 126,-208.8 536.09,-208.8 536.09,-208.8"/>
<polygon fill="black" stroke="black" points="536.09,-212.3 546.09,-208.8 536.09,-205.3 536.09,-212.3"/>
</g>
<!-- LazadaService -->
<g id="node4" class="node">
<title>LazadaService</title>
<ellipse fill="#fdb462" stroke="black" cx="600" cy="-66.8" rx="67.73" ry="18"/>
<text text-anchor="middle" x="600" y="-62.6" font-family="Times,serif" font-size="14.00">LazadaService</text>
</g>
<!-- LazadaService&#45;&gt;AffiliateModule -->
<g id="edge3" class="edge">
<title>LazadaService&#45;&gt;AffiliateModule</title>
<path fill="none" stroke="black" d="M600,-85.01C600,-85.01 600,-171.38 600,-171.38"/>
<polygon fill="black" stroke="black" points="596.5,-171.38 600,-181.38 603.5,-171.38 596.5,-171.38"/>
</g>
<!-- PrismaService -->
<g id="node5" class="node">
<title>PrismaService</title>
<ellipse fill="#fdb462" stroke="black" cx="753" cy="-66.8" rx="66.63" ry="18"/>
<text text-anchor="middle" x="753" y="-62.6" font-family="Times,serif" font-size="14.00">PrismaService</text>
</g>
<!-- PrismaService&#45;&gt;AuthModule -->
<g id="edge11" class="edge">
<title>PrismaService&#45;&gt;AuthModule</title>
<path fill="none" stroke="black" d="M753,-85.02C753,-85.02 753,-106.53 753,-106.53"/>
<polygon fill="black" stroke="black" points="749.5,-106.53 753,-116.53 756.5,-106.53 749.5,-106.53"/>
</g>
<!-- PrismaService&#45;&gt;AffiliateModule -->
<g id="edge4" class="edge">
<title>PrismaService&#45;&gt;AffiliateModule</title>
<path fill="none" stroke="black" d="M690.73,-73.63C690.73,-100.01 690.73,-193.8 690.73,-193.8 690.73,-193.8 663.57,-193.8 663.57,-193.8"/>
<polygon fill="black" stroke="black" points="663.57,-190.3 653.57,-193.8 663.57,-197.3 663.57,-190.3"/>
</g>
<!-- ShopeeService -->
<g id="node6" class="node">
<title>ShopeeService</title>
<ellipse fill="#fdb462" stroke="black" cx="315" cy="-66.8" rx="68.34" ry="18"/>
<text text-anchor="middle" x="315" y="-62.6" font-family="Times,serif" font-size="14.00">ShopeeService</text>
</g>
<!-- ShopeeService&#45;&gt;AffiliateModule -->
<g id="edge5" class="edge">
<title>ShopeeService&#45;&gt;AffiliateModule</title>
<path fill="none" stroke="black" d="M315,-85.01C315,-121.44 315,-199.8 315,-199.8 315,-199.8 536.39,-199.8 536.39,-199.8"/>
<polygon fill="black" stroke="black" points="536.39,-203.3 546.39,-199.8 536.39,-196.3 536.39,-203.3"/>
</g>
<!-- TikiService -->
<g id="node7" class="node">
<title>TikiService</title>
<ellipse fill="#fdb462" stroke="black" cx="458" cy="-66.8" rx="56.17" ry="18"/>
<text text-anchor="middle" x="458" y="-62.6" font-family="Times,serif" font-size="14.00">TikiService</text>
</g>
<!-- TikiService&#45;&gt;AffiliateModule -->
<g id="edge6" class="edge">
<title>TikiService&#45;&gt;AffiliateModule</title>
<path fill="none" stroke="black" d="M458,-84.83C458,-119.22 458,-190.8 458,-190.8 458,-190.8 536.32,-190.8 536.32,-190.8"/>
<polygon fill="black" stroke="black" points="536.32,-194.3 546.32,-190.8 536.32,-187.3 536.32,-194.3"/>
</g>
<!-- JwtStrategy -->
<g id="node9" class="node">
<title>JwtStrategy</title>
<ellipse fill="#fdb462" stroke="black" cx="917" cy="-66.8" rx="56.76" ry="18"/>
<text text-anchor="middle" x="917" y="-62.6" font-family="Times,serif" font-size="14.00">JwtStrategy</text>
</g>
<!-- JwtStrategy&#45;&gt;AuthModule -->
<g id="edge9" class="edge">
<title>JwtStrategy&#45;&gt;AuthModule</title>
<path fill="none" stroke="black" d="M917,-85.07C917,-103.36 917,-128.8 917,-128.8 917,-128.8 806.95,-128.8 806.95,-128.8"/>
<polygon fill="black" stroke="black" points="806.95,-125.3 796.95,-128.8 806.95,-132.3 806.95,-125.3"/>
</g>
<!-- LocalStrategy -->
<g id="node10" class="node">
<title>LocalStrategy</title>
<ellipse fill="#fdb462" stroke="black" cx="1057" cy="-66.8" rx="65.41" ry="18"/>
<text text-anchor="middle" x="1057" y="-62.6" font-family="Times,serif" font-size="14.00">LocalStrategy</text>
</g>
<!-- LocalStrategy&#45;&gt;AuthModule -->
<g id="edge10" class="edge">
<title>LocalStrategy&#45;&gt;AuthModule</title>
<path fill="none" stroke="black" d="M1057,-85.09C1057,-107.01 1057,-140.8 1057,-140.8 1057,-140.8 806.56,-140.8 806.56,-140.8"/>
<polygon fill="black" stroke="black" points="806.56,-137.3 796.56,-140.8 806.56,-144.3 806.56,-137.3"/>
</g>
</g>
</svg>
